# xmcd
#
# Track frame offsets:
#	150
#	15322
#	28398
#	49682
#	61642
#	76607
#	90501
#	100651
#	117511
#	132509
#	144355
#	155138
#	166975
#	187129
#	200043
#	213145
#
# Disc length: 3059 seconds
#
# Revision: 0
# Processed by: cddbd v1.5.2PL0 Copyright (c) Steve Scherf et al.
# Submitted via: dBpowerAMP V4.0
#
DISCID=d40bf110
DTITLE=Various Artist - Country Ladies
DYEAR=1900
DGENRE=Country
TTITLE0=Billie Jo Spears - Blanket on the ground
TTITLE1=Lynn Anderson - Rose garden
TTITLE2=Olivia Newton-John - Banks of the Ohio
TTITLE3=Tammy Wynette - Stand by your man
TTITLE4=Dolly Parton - I will always love you (live)
TTITLE5=Juice Newton - Listen to the radio
TTITLE6=Patsy Cline - Three cigarettes in an ashtray
TTITLE7=Linda Ronstadt - I'm gonna love (live)
TTITLE8=Brenda Lee and Nina Martinique - Silver threads and golden Needles
TTITLE9=Wanda Jackson - Right or wrong
TTITLE10=Sammi Smith - The Letter
TTITLE11=Sandy Posey - Bring him home safely to me
TTITLE12=Emmylou Harris - Love hurts
TTITLE13=Anne Murray - Path of victory
TTITLE14=Tanya Tucker - The man that turned my mama on
TTITLE15=Crystal Gayle - When I dream
EXTD=
EXTT0=
EXTT1=
EXTT2=
EXTT3=
EXTT4=
EXTT5=
EXTT6=
EXTT7=
EXTT8=
EXTT9=
EXTT10=
EXTT11=
EXTT12=
EXTT13=
EXTT14=
EXTT15=
PLAYORDER=
